%TF.GenerationSoftware,KiCad,Pcbnew,9.0.4*%
%TF.CreationDate,2025-09-19T16:13:00+02:00*%
%TF.ProjectId,blackpants,626c6163-6b70-4616-9e74-732e6b696361,V2.5*%
%TF.SameCoordinates,Original*%
%TF.FileFunction,Profile,NP*%
%FSLAX46Y46*%
G04 Gerber Fmt 4.6, Leading zero omitted, Abs format (unit mm)*
G04 Created by KiCad (PCBNEW 9.0.4) date 2025-09-19 16:13:00*
%MOMM*%
%LPD*%
G01*
G04 APERTURE LIST*
%TA.AperFunction,Profile*%
%ADD10C,0.050000*%
%TD*%
%TA.AperFunction,Profile*%
%ADD11C,0.010000*%
%TD*%
%TA.AperFunction,Profile*%
%ADD12C,0.100000*%
%TD*%
G04 APERTURE END LIST*
D10*
X117500000Y-27000000D02*
X57500000Y-27000000D01*
X32500000Y-180000000D02*
G75*
G02*
X30000000Y-177500000I0J2500000D01*
G01*
X30000000Y-41500000D02*
G75*
G02*
X32500000Y-39000000I2500000J0D01*
G01*
X120000000Y-177500000D02*
X120000000Y-29500000D01*
X120000000Y-177500000D02*
G75*
G02*
X117500000Y-180000000I-2500000J0D01*
G01*
X55000000Y-36500000D02*
G75*
G02*
X52500000Y-39000000I-2500000J0D01*
G01*
X52500000Y-39000000D02*
X32500000Y-39000000D01*
X55000000Y-29500000D02*
G75*
G02*
X57500000Y-27000000I2500000J0D01*
G01*
X55000000Y-29500000D02*
X55000000Y-36500000D01*
X117500000Y-27000000D02*
G75*
G02*
X120000000Y-29500000I0J-2500000D01*
G01*
X32500000Y-180000000D02*
X117500000Y-180000000D01*
X30000000Y-41500000D02*
X30000000Y-177500000D01*
D11*
%TO.C,PWR_BUTTON1*%
X118594784Y-68259611D02*
G75*
G02*
X118494542Y-67559610I299876J400121D01*
G01*
X118494543Y-65159612D02*
G75*
G02*
X118596571Y-64458283I400126J299876D01*
G01*
X119844543Y-68259611D02*
X119844543Y-64459611D01*
X119844543Y-64459611D02*
X118596571Y-64459611D01*
X118594785Y-68259611D02*
X119844543Y-68259611D01*
X118494543Y-65159611D02*
X118494543Y-67559611D01*
D12*
%TO.C,U14*%
X85525000Y-139027278D02*
G75*
G02*
X84325000Y-139027278I-600000J0D01*
G01*
X84325000Y-139027278D02*
G75*
G02*
X85525000Y-139027278I600000J0D01*
G01*
X65725000Y-139027278D02*
G75*
G02*
X64525000Y-139027278I-600000J0D01*
G01*
X64525000Y-139027278D02*
G75*
G02*
X65725000Y-139027278I600000J0D01*
G01*
X33775000Y-114037276D02*
G75*
G02*
X32475000Y-114037276I-650000J0D01*
G01*
X32475000Y-114037276D02*
G75*
G02*
X33775000Y-114037276I650000J0D01*
G01*
%TD*%
M02*
