%TF.GenerationSoftware,KiCad,Pcbnew,9.0.4*%
%TF.CreationDate,2025-09-19T16:13:01+02:00*%
%TF.ProjectId,blackpants,626c6163-6b70-4616-9e74-732e6b696361,V2.5*%
%TF.SameCoordinates,Original*%
%TF.FileFunction,AssemblyDrawing,Top*%
%FSLAX46Y46*%
G04 Gerber Fmt 4.6, Leading zero omitted, Abs format (unit mm)*
G04 Created by KiCad (PCBNEW 9.0.4) date 2025-09-19 16:13:01*
%MOMM*%
%LPD*%
G01*
G04 APERTURE LIST*
%ADD10C,0.150000*%
%ADD11C,0.070000*%
%ADD12C,0.100000*%
G04 APERTURE END LIST*
D10*
X32390476Y-42362295D02*
X32390476Y-41562295D01*
X32390476Y-41943247D02*
X32847619Y-41943247D01*
X32847619Y-42362295D02*
X32847619Y-41562295D01*
X33647618Y-42362295D02*
X33190475Y-42362295D01*
X33419047Y-42362295D02*
X33419047Y-41562295D01*
X33419047Y-41562295D02*
X33342856Y-41676580D01*
X33342856Y-41676580D02*
X33266666Y-41752771D01*
X33266666Y-41752771D02*
X33190475Y-41790866D01*
X116390476Y-30362295D02*
X116390476Y-29562295D01*
X116390476Y-29943247D02*
X116847619Y-29943247D01*
X116847619Y-30362295D02*
X116847619Y-29562295D01*
X117190475Y-29638485D02*
X117228571Y-29600390D01*
X117228571Y-29600390D02*
X117304761Y-29562295D01*
X117304761Y-29562295D02*
X117495237Y-29562295D01*
X117495237Y-29562295D02*
X117571428Y-29600390D01*
X117571428Y-29600390D02*
X117609523Y-29638485D01*
X117609523Y-29638485D02*
X117647618Y-29714676D01*
X117647618Y-29714676D02*
X117647618Y-29790866D01*
X117647618Y-29790866D02*
X117609523Y-29905152D01*
X117609523Y-29905152D02*
X117152380Y-30362295D01*
X117152380Y-30362295D02*
X117647618Y-30362295D01*
X116390476Y-177362295D02*
X116390476Y-176562295D01*
X116390476Y-176943247D02*
X116847619Y-176943247D01*
X116847619Y-177362295D02*
X116847619Y-176562295D01*
X117152380Y-176562295D02*
X117647618Y-176562295D01*
X117647618Y-176562295D02*
X117380952Y-176867057D01*
X117380952Y-176867057D02*
X117495237Y-176867057D01*
X117495237Y-176867057D02*
X117571428Y-176905152D01*
X117571428Y-176905152D02*
X117609523Y-176943247D01*
X117609523Y-176943247D02*
X117647618Y-177019438D01*
X117647618Y-177019438D02*
X117647618Y-177209914D01*
X117647618Y-177209914D02*
X117609523Y-177286104D01*
X117609523Y-177286104D02*
X117571428Y-177324200D01*
X117571428Y-177324200D02*
X117495237Y-177362295D01*
X117495237Y-177362295D02*
X117266666Y-177362295D01*
X117266666Y-177362295D02*
X117190475Y-177324200D01*
X117190475Y-177324200D02*
X117152380Y-177286104D01*
X32390476Y-177362295D02*
X32390476Y-176562295D01*
X32390476Y-176943247D02*
X32847619Y-176943247D01*
X32847619Y-177362295D02*
X32847619Y-176562295D01*
X33571428Y-176828961D02*
X33571428Y-177362295D01*
X33380952Y-176524200D02*
X33190475Y-177095628D01*
X33190475Y-177095628D02*
X33685714Y-177095628D01*
X32390476Y-108362295D02*
X32390476Y-107562295D01*
X32390476Y-107943247D02*
X32847619Y-107943247D01*
X32847619Y-108362295D02*
X32847619Y-107562295D01*
X33571428Y-107562295D02*
X33419047Y-107562295D01*
X33419047Y-107562295D02*
X33342856Y-107600390D01*
X33342856Y-107600390D02*
X33304761Y-107638485D01*
X33304761Y-107638485D02*
X33228571Y-107752771D01*
X33228571Y-107752771D02*
X33190475Y-107905152D01*
X33190475Y-107905152D02*
X33190475Y-108209914D01*
X33190475Y-108209914D02*
X33228571Y-108286104D01*
X33228571Y-108286104D02*
X33266666Y-108324200D01*
X33266666Y-108324200D02*
X33342856Y-108362295D01*
X33342856Y-108362295D02*
X33495237Y-108362295D01*
X33495237Y-108362295D02*
X33571428Y-108324200D01*
X33571428Y-108324200D02*
X33609523Y-108286104D01*
X33609523Y-108286104D02*
X33647618Y-108209914D01*
X33647618Y-108209914D02*
X33647618Y-108019438D01*
X33647618Y-108019438D02*
X33609523Y-107943247D01*
X33609523Y-107943247D02*
X33571428Y-107905152D01*
X33571428Y-107905152D02*
X33495237Y-107867057D01*
X33495237Y-107867057D02*
X33342856Y-107867057D01*
X33342856Y-107867057D02*
X33266666Y-107905152D01*
X33266666Y-107905152D02*
X33228571Y-107943247D01*
X33228571Y-107943247D02*
X33190475Y-108019438D01*
X116390476Y-108362295D02*
X116390476Y-107562295D01*
X116390476Y-107943247D02*
X116847619Y-107943247D01*
X116847619Y-108362295D02*
X116847619Y-107562295D01*
X117152380Y-107562295D02*
X117685714Y-107562295D01*
X117685714Y-107562295D02*
X117342856Y-108362295D01*
X75990475Y-139124982D02*
X75990475Y-138477363D01*
X75990475Y-138477363D02*
X75952380Y-138401173D01*
X75952380Y-138401173D02*
X75914285Y-138363078D01*
X75914285Y-138363078D02*
X75838094Y-138324982D01*
X75838094Y-138324982D02*
X75685713Y-138324982D01*
X75685713Y-138324982D02*
X75609523Y-138363078D01*
X75609523Y-138363078D02*
X75571428Y-138401173D01*
X75571428Y-138401173D02*
X75533332Y-138477363D01*
X75533332Y-138477363D02*
X75533332Y-139124982D01*
X74733333Y-138324982D02*
X75190476Y-138324982D01*
X74961904Y-138324982D02*
X74961904Y-139124982D01*
X74961904Y-139124982D02*
X75038095Y-139010697D01*
X75038095Y-139010697D02*
X75114285Y-138934506D01*
X75114285Y-138934506D02*
X75190476Y-138896411D01*
X74047618Y-138858316D02*
X74047618Y-138324982D01*
X74238094Y-139163078D02*
X74428571Y-138591649D01*
X74428571Y-138591649D02*
X73933332Y-138591649D01*
X76215475Y-138743936D02*
X73714041Y-138743936D01*
D11*
%TO.C,D15*%
X48956202Y-165859999D02*
X45156202Y-165859999D01*
X48956202Y-164959999D02*
X48956202Y-165859999D01*
X45156202Y-165859999D02*
X45156202Y-164959999D01*
X45156202Y-164959999D02*
X48956202Y-164959999D01*
%TO.C,D16*%
X62965002Y-165859999D02*
X59165002Y-165859999D01*
X62965002Y-164959999D02*
X62965002Y-165859999D01*
X59165002Y-165859999D02*
X59165002Y-164959999D01*
X59165002Y-164959999D02*
X62965002Y-164959999D01*
%TO.C,D17*%
X90965002Y-165859999D02*
X87165002Y-165859999D01*
X90965002Y-164959999D02*
X90965002Y-165859999D01*
X87165002Y-165859999D02*
X87165002Y-164959999D01*
X87165002Y-164959999D02*
X90965002Y-164959999D01*
%TO.C,D18*%
X104815002Y-165859999D02*
X101015002Y-165859999D01*
X104815002Y-164959999D02*
X104815002Y-165859999D01*
X101015002Y-165859999D02*
X101015002Y-164959999D01*
X101015002Y-164959999D02*
X104815002Y-164959999D01*
%TO.C,D19*%
X47709754Y-112387538D02*
X43909754Y-112387538D01*
X47709754Y-111487538D02*
X47709754Y-112387538D01*
X43909754Y-112387538D02*
X43909754Y-111487538D01*
X43909754Y-111487538D02*
X47709754Y-111487538D01*
%TO.C,D20*%
X62300002Y-112389999D02*
X58500002Y-112389999D01*
X62300002Y-111489999D02*
X62300002Y-112389999D01*
X58500002Y-112389999D02*
X58500002Y-111489999D01*
X58500002Y-111489999D02*
X62300002Y-111489999D01*
%TO.C,D21*%
X91500002Y-112384999D02*
X87700002Y-112384999D01*
X91500002Y-111484999D02*
X91500002Y-112384999D01*
X87700002Y-112384999D02*
X87700002Y-111484999D01*
X87700002Y-111484999D02*
X91500002Y-111484999D01*
%TO.C,D22*%
X106115002Y-112389999D02*
X102315002Y-112389999D01*
X106115002Y-111489999D02*
X106115002Y-112389999D01*
X102315002Y-112389999D02*
X102315002Y-111489999D01*
X102315002Y-111489999D02*
X106115002Y-111489999D01*
D12*
%TO.C,U14*%
X75750000Y-138687278D02*
G75*
G02*
X74250000Y-138687278I-750000J0D01*
G01*
X74250000Y-138687278D02*
G75*
G02*
X75750000Y-138687278I750000J0D01*
G01*
X75750000Y-138687278D02*
G75*
G02*
X74250000Y-138687278I-750000J0D01*
G01*
X74250000Y-138687278D02*
G75*
G02*
X75750000Y-138687278I750000J0D01*
G01*
%TD*%
X73952447Y-137641005D02*
X76044998Y-139733550D01*
X73952447Y-139733550D02*
X76044998Y-137641005D01*
M02*
