M48
METRIC,TZ
T1C0.200
T2C0.200
T3C0.300
T4C0.600
T5C2.700
%
G90
G05
T1
X30500Y-44500
X30500Y-46500
X30500Y-48700
X30500Y-50700
X30500Y-52700
X30500Y-54700
X30500Y-56700
X30500Y-58600
X30500Y-60600
X30500Y-62600
X30500Y-64600
X30500Y-66600
X30500Y-68600
X30500Y-70600
X30500Y-72500
X30500Y-74500
X30500Y-76500
X30500Y-78500
X30500Y-80500
X30500Y-82500
X30500Y-84500
X30500Y-86400
X30500Y-88400
X30500Y-90400
X30500Y-92400
X30500Y-94400
X30500Y-96500
X30500Y-98500
X30500Y-100500
X30500Y-102500
X30500Y-104500
X30500Y-110500
X30500Y-112500
X30500Y-114500
X30500Y-116500
X30500Y-118500
X30500Y-120500
X30500Y-122500
X30500Y-124500
X30500Y-126500
X30500Y-128500
X30500Y-130500
X30500Y-132500
X30500Y-134500
X30500Y-136500
X30500Y-138500
X30500Y-140500
X30500Y-142500
X30500Y-144500
X30500Y-146500
X30500Y-148500
X30500Y-150500
X30500Y-152500
X30500Y-154500
X30500Y-156500
X30500Y-158500
X36000Y-40000
X38000Y-40000
X40000Y-40000
X42000Y-40000
X44000Y-40000
X46000Y-40000
X48000Y-40000
X50000Y-40000
X52000Y-40000
X54000Y-40000
X55800Y-29000
X55800Y-31000
X55800Y-33000
X55800Y-35000
X55800Y-37000
X55800Y-39000
X57500Y-27500
X59500Y-27500
X61500Y-27500
X63500Y-27500
X65500Y-27500
X67500Y-27500
X69500Y-27500
X71500Y-27500
X73500Y-27500
X75500Y-27500
X77500Y-27500
X79500Y-27500
X81500Y-27500
X83500Y-27500
X85500Y-27500
X87500Y-27500
X89500Y-27500
X91500Y-27500
X93500Y-27500
X95500Y-27500
X97500Y-27500
X99500Y-27500
X101500Y-27500
X103500Y-27500
X105100Y-28575
X105500Y-27500
X107100Y-28575
X107500Y-27500
X109100Y-28575
X109500Y-27500
X111500Y-27500
X113500Y-27500
X119500Y-33900
X119500Y-35900
X119500Y-37900
X119500Y-39900
X119500Y-41900
X119500Y-43900
X119500Y-56500
X119500Y-58500
X119500Y-60500
X119500Y-62500
X119500Y-70500
X119500Y-72500
X119500Y-74500
X119500Y-76500
X119500Y-78500
X119500Y-80500
X119500Y-82500
X119500Y-84500
X119500Y-86500
X119500Y-88500
X119500Y-90500
X119500Y-92500
X119500Y-94500
X119500Y-96500
X119500Y-98500
X119500Y-100500
X119500Y-102500
X119500Y-104500
X119500Y-110500
X119500Y-112500
X119500Y-114500
X119500Y-116500
X119500Y-118500
X119500Y-120500
X119500Y-122500
X119500Y-124500
X119500Y-126500
X119500Y-128500
X119500Y-130500
X119500Y-132500
X119500Y-134500
X119500Y-136500
X119500Y-138500
X119500Y-140500
X119500Y-142500
X119500Y-144500
X119500Y-146500
X119500Y-148500
X119500Y-150500
X119500Y-152500
X119500Y-154500
X119500Y-156500
X119500Y-158500
X119500Y-160500
X119500Y-162500
X119500Y-164500
X119500Y-166500
X119500Y-168500
X119500Y-170500
X119500Y-172500
T2
X102745Y-34000
X102745Y-35300
X102745Y-36600
X104655Y-34000
X104655Y-35300
X104655Y-36600
T3
X34800Y-88200
X35450Y-155010
X38200Y-95200
X38700Y-83000
X39200Y-94200
X39450Y-154010
X40850Y-120710
X41100Y-112900
X42900Y-110300
X42900Y-111000
X42900Y-111700
X42900Y-112400
X45750Y-151210
X47100Y-175600
X47400Y-104400
X47600Y-176100
X48100Y-175600
X48400Y-103400
X48500Y-176100
X49000Y-175600
X49100Y-98200
X49400Y-96800
X49400Y-99600
X49700Y-116100
X49850Y-119910
X49900Y-114900
X50960Y-112600
X52500Y-158600
X53000Y-113400
X56000Y-92750
X56453Y-111347
X56500Y-46000
X56500Y-47000
X56500Y-48000
X56500Y-49000
X56500Y-50000
X56500Y-51500
X56500Y-53000
X56500Y-54500
X56600Y-113400
X57000Y-48500
X57000Y-49500
X57200Y-112000
X57550Y-147210
X58500Y-92750
X59000Y-158600
X59150Y-119010
X59600Y-158600
X59800Y-108800
X59800Y-110800
X59800Y-113600
X59900Y-92900
X60050Y-118000
X60050Y-121510
X60200Y-158600
X61800Y-101300
X62250Y-118710
X63100Y-101300
X63700Y-94100
X63850Y-123910
X63923Y-112600
X63950Y-146510
X65300Y-112700
X65550Y-143810
X67300Y-98300
X67500Y-97600
X67702Y-111198
X68400Y-116100
X68600Y-113200
X68700Y-97800
X69200Y-98200
X69310Y-102600
X69310Y-111120
X69350Y-119110
X69400Y-91400
X69570Y-113630
X69590Y-101800
X69700Y-111891
X69800Y-105100
X70030Y-113170
X70387Y-116595
X70400Y-95300
X70465Y-117230
X70500Y-58000
X70756Y-117800
X71300Y-92900
X71500Y-58000
X71550Y-120650
X71550Y-122100
X71800Y-93600
X71800Y-105400
X72000Y-119000
X72300Y-92900
X72300Y-109100
X72500Y-58000
X73000Y-57500
X73000Y-105900
X73100Y-101360
X73128Y-95400
X73300Y-119300
X73500Y-58000
X73841Y-118863
X74140Y-58000
X74252Y-120590
X74590Y-60500
X74600Y-89300
X74700Y-92900
X75100Y-114700
X75700Y-93010
X75850Y-110200
X75900Y-103000
X75900Y-120400
X76065Y-101675
X76265Y-60500
X76300Y-87600
X76790Y-97620
X77300Y-103900
X77300Y-105600
X77300Y-107200
X77765Y-60500
X78200Y-96700
X78600Y-111150
X78800Y-120000
X79000Y-92900
X79000Y-98000
X79200Y-118850
X79237Y-111088
X79265Y-60500
X79300Y-103900
X79300Y-105600
X79300Y-107200
X79300Y-111950
X79400Y-114900
X79500Y-115950
X79600Y-113500
X80000Y-112600
X80500Y-110500
X80600Y-122750
X81300Y-103900
X81300Y-105600
X81450Y-122810
X81500Y-112900
X81700Y-113800
X82000Y-117700
X82619Y-109819
X83300Y-103900
X83300Y-105600
X83300Y-107200
X83600Y-33400
X83700Y-99300
X83800Y-115100
X84250Y-122910
X84350Y-143710
X85300Y-103900
X85300Y-105600
X85300Y-107200
X85600Y-114345
X86300Y-33200
X86411Y-113589
X86500Y-61000
X86500Y-64600
X86800Y-59900
X87300Y-103900
X87300Y-105600
X87300Y-107200
X87400Y-59900
X87550Y-155650
X88380Y-56900
X89300Y-103900
X89300Y-105600
X89300Y-107200
X89800Y-111600
X90050Y-62800
X90800Y-109000
X91300Y-105000
X91500Y-109000
X91900Y-113700
X92100Y-106800
X92100Y-107400
X92100Y-108000
X92200Y-109000
X92600Y-103700
X93200Y-111500
X93200Y-112100
X93800Y-102400
X94400Y-114100
X94500Y-109100
X94500Y-110400
X94900Y-113600
X95400Y-113100
X96300Y-34000
X96600Y-42800
X97050Y-116300
X97100Y-41800
X97600Y-40800
X97600Y-42800
X97900Y-34000
X98000Y-107700
X98050Y-116800
X98050Y-120610
X98100Y-41800
X98100Y-105175
X98100Y-105825
X98180Y-102575
X98180Y-103225
X98600Y-40800
X98600Y-42800
X98700Y-111600
X98700Y-112500
X99050Y-147610
X99080Y-105170
X99080Y-105820
X99100Y-41800
X99160Y-102570
X99160Y-103220
X99600Y-40800
X99600Y-42800
X100100Y-108999
X100150Y-155210
X100600Y-107600
X100700Y-97100
X100700Y-99700
X102450Y-154800
X103100Y-28800
X103100Y-29800
X103100Y-30800
X103100Y-31800
X103100Y-32800
X103100Y-37800
X103100Y-38800
X103100Y-39800
X103100Y-40800
X103100Y-41800
X103300Y-96300
X103650Y-138610
X104050Y-142310
X104100Y-29300
X104100Y-30300
X104100Y-31300
X104100Y-32300
X104100Y-38300
X104100Y-39300
X104100Y-40300
X104100Y-41300
X104500Y-86000
X104950Y-123510
X105450Y-143610
X105750Y-147510
X105900Y-31000
X106050Y-155210
X106105Y-52800
X106150Y-46750
X106950Y-118010
X106950Y-123110
X107060Y-52800
X107100Y-46750
X107150Y-116810
X107700Y-38300
X107700Y-39300
X107700Y-40300
X107700Y-41200
X107850Y-115610
X107980Y-52090
X108850Y-46700
X109600Y-170000
X109800Y-46700
X109800Y-169200
X110000Y-168400
X110200Y-167600
X110400Y-170200
X110600Y-169400
X110800Y-168600
X111000Y-167800
X111200Y-170400
X111400Y-169600
X111600Y-168800
X111800Y-168000
X111850Y-138710
X111900Y-39000
X111900Y-39800
X112000Y-170600
X112200Y-169800
X112400Y-169000
X112450Y-147410
X112450Y-155210
X112500Y-32700
X112600Y-33300
X112600Y-168200
X113000Y-170400
X113100Y-48790
X113100Y-49440
X113100Y-50710
X113110Y-50070
X113200Y-32900
X113200Y-33500
X113200Y-42600
X113200Y-169600
X113400Y-168800
X114000Y-169800
X116100Y-66300
X116200Y-65200
T4
X35425Y-126477
X35425Y-134377
X35425Y-142277
X35425Y-150177
X35425Y-158077
X36965Y-117987
X42025Y-126477
X42025Y-134377
X42025Y-142277
X42025Y-150177
X42025Y-158077
X46640Y-117987
X48625Y-126477
X48625Y-134377
X48625Y-142277
X48625Y-150177
X48625Y-158077
X55225Y-126477
X55225Y-134377
X55225Y-142277
X55225Y-150177
X55225Y-158077
X56315Y-117987
X61825Y-126477
X61825Y-134377
X61825Y-142277
X61825Y-150177
X65125Y-158077
X65990Y-117987
X68425Y-126477
X68425Y-134377
X68425Y-142277
X68425Y-150177
X75025Y-126477
X75025Y-134377
X75025Y-142277
X75025Y-150177
X75025Y-158077
X81625Y-126477
X81625Y-134377
X81625Y-142277
X81625Y-150177
X84065Y-117987
X84925Y-158077
X88225Y-126477
X88225Y-134377
X88225Y-142277
X88225Y-150177
X93740Y-117987
X94825Y-126477
X94825Y-134377
X94825Y-142277
X94825Y-150177
X94825Y-158077
X101425Y-126477
X101425Y-134377
X101425Y-142277
X101425Y-150177
X101425Y-158077
X103415Y-117987
X108025Y-126477
X108025Y-134377
X108025Y-142277
X108025Y-150177
X108025Y-158077
X113090Y-117987
X114625Y-126477
X114625Y-134377
X114625Y-142277
X114625Y-150177
X114625Y-158077
T5
X33000Y-42000
X33000Y-108000
X33000Y-177000
X117000Y-30000
X117000Y-108000
X117000Y-177000
T4
X38100Y-91900G85X39800Y-91900
G05
X38100Y-104700G85X39800Y-104700
G05
X111900Y-91900G85X110200Y-91900
G05
X111900Y-104700G85X110200Y-104700
G05
X113330Y-45440G85X112230Y-45440
G05
X113330Y-54080G85X112230Y-54080
G05
X117260Y-45440G85X116660Y-45440
G05
X117260Y-54080G85X116660Y-54080
G05
M30
