G04 #@! TF.GenerationSoftware,KiCad,Pcbnew,9.0.7*
G04 #@! TF.CreationDate,2026-01-07T21:20:25+01:00*
G04 #@! TF.ProjectId,blackpants,626c6163-6b70-4616-9e74-732e6b696361,V2.5*
G04 #@! TF.SameCoordinates,Original*
G04 #@! TF.FileFunction,Soldermask,Bot*
G04 #@! TF.FilePolarity,Negative*
%FSLAX46Y46*%
G04 Gerber Fmt 4.6, Leading zero omitted, Abs format (unit mm)*
G04 Created by KiCad (PCBNEW 9.0.7) date 2026-01-07 21:20:25*
%MOMM*%
%LPD*%
G01*
G04 APERTURE LIST*
G04 Aperture macros list*
%AMRoundRect*
0 Rectangle with rounded corners*
0 $1 Rounding radius*
0 $2 $3 $4 $5 $6 $7 $8 $9 X,Y pos of 4 corners*
0 Add a 4 corners polygon primitive as box body*
4,1,4,$2,$3,$4,$5,$6,$7,$8,$9,$2,$3,0*
0 Add four circle primitives for the rounded corners*
1,1,$1+$1,$2,$3*
1,1,$1+$1,$4,$5*
1,1,$1+$1,$6,$7*
1,1,$1+$1,$8,$9*
0 Add four rect primitives between the rounded corners*
20,1,$1+$1,$2,$3,$4,$5,0*
20,1,$1+$1,$4,$5,$6,$7,0*
20,1,$1+$1,$6,$7,$8,$9,0*
20,1,$1+$1,$8,$9,$2,$3,0*%
%AMFreePoly0*
4,1,23,0.500000,-0.750000,0.000000,-0.750000,0.000000,-0.745722,-0.065263,-0.745722,-0.191342,-0.711940,-0.304381,-0.646677,-0.396677,-0.554381,-0.461940,-0.441342,-0.495722,-0.315263,-0.495722,-0.250000,-0.500000,-0.250000,-0.500000,0.250000,-0.495722,0.250000,-0.495722,0.315263,-0.461940,0.441342,-0.396677,0.554381,-0.304381,0.646677,-0.191342,0.711940,-0.065263,0.745722,0.000000,0.745722,
0.000000,0.750000,0.500000,0.750000,0.500000,-0.750000,0.500000,-0.750000,$1*%
%AMFreePoly1*
4,1,23,0.000000,0.745722,0.065263,0.745722,0.191342,0.711940,0.304381,0.646677,0.396677,0.554381,0.461940,0.441342,0.495722,0.315263,0.495722,0.250000,0.500000,0.250000,0.500000,-0.250000,0.495722,-0.250000,0.495722,-0.315263,0.461940,-0.441342,0.396677,-0.554381,0.304381,-0.646677,0.191342,-0.711940,0.065263,-0.745722,0.000000,-0.745722,0.000000,-0.750000,-0.500000,-0.750000,
-0.500000,0.750000,0.000000,0.750000,0.000000,0.745722,0.000000,0.745722,$1*%
%AMFreePoly2*
4,1,23,0.550000,-0.750000,0.000000,-0.750000,0.000000,-0.745722,-0.065263,-0.745722,-0.191342,-0.711940,-0.304381,-0.646677,-0.396677,-0.554381,-0.461940,-0.441342,-0.495722,-0.315263,-0.495722,-0.250000,-0.500000,-0.250000,-0.500000,0.250000,-0.495722,0.250000,-0.495722,0.315263,-0.461940,0.441342,-0.396677,0.554381,-0.304381,0.646677,-0.191342,0.711940,-0.065263,0.745722,0.000000,0.745722,
0.000000,0.750000,0.550000,0.750000,0.550000,-0.750000,0.550000,-0.750000,$1*%
%AMFreePoly3*
4,1,23,0.000000,0.745722,0.065263,0.745722,0.191342,0.711940,0.304381,0.646677,0.396677,0.554381,0.461940,0.441342,0.495722,0.315263,0.495722,0.250000,0.500000,0.250000,0.500000,-0.250000,0.495722,-0.250000,0.495722,-0.315263,0.461940,-0.441342,0.396677,-0.554381,0.304381,-0.646677,0.191342,-0.711940,0.065263,-0.745722,0.000000,-0.745722,0.000000,-0.750000,-0.550000,-0.750000,
-0.550000,0.750000,0.000000,0.750000,0.000000,0.745722,0.000000,0.745722,$1*%
%AMFreePoly4*
4,1,7,1.050000,-0.975000,-1.050000,-0.975000,-1.050000,0.625000,-0.250000,0.625000,-0.250000,0.975000,1.050000,0.975000,1.050000,-0.975000,1.050000,-0.975000,$1*%
%AMFreePoly5*
4,1,7,0.250000,0.625000,1.050000,0.625000,1.050000,-0.975000,-1.050000,-0.975000,-1.050000,0.975000,0.250000,0.975000,0.250000,0.625000,0.250000,0.625000,$1*%
G04 Aperture macros list end*
%ADD10C,5.400000*%
%ADD11RoundRect,0.140000X-0.140000X-0.170000X0.140000X-0.170000X0.140000X0.170000X-0.140000X0.170000X0*%
%ADD12RoundRect,0.225000X0.225000X0.250000X-0.225000X0.250000X-0.225000X-0.250000X0.225000X-0.250000X0*%
%ADD13RoundRect,0.225000X-0.250000X0.225000X-0.250000X-0.225000X0.250000X-0.225000X0.250000X0.225000X0*%
%ADD14RoundRect,0.140000X0.170000X-0.140000X0.170000X0.140000X-0.170000X0.140000X-0.170000X-0.140000X0*%
%ADD15R,2.700000X1.700000*%
%ADD16C,0.650000*%
%ADD17R,1.450000X0.600000*%
%ADD18R,1.450000X0.300000*%
%ADD19O,1.600000X1.000000*%
%ADD20O,2.100000X1.000000*%
%ADD21RoundRect,0.150000X-0.512500X-0.150000X0.512500X-0.150000X0.512500X0.150000X-0.512500X0.150000X0*%
%ADD22RoundRect,0.250000X0.375000X0.625000X-0.375000X0.625000X-0.375000X-0.625000X0.375000X-0.625000X0*%
%ADD23RoundRect,0.250000X-0.400000X-0.300000X0.400000X-0.300000X0.400000X0.300000X-0.400000X0.300000X0*%
%ADD24FreePoly0,270.000000*%
%ADD25FreePoly1,270.000000*%
%ADD26RoundRect,0.062500X0.375000X0.062500X-0.375000X0.062500X-0.375000X-0.062500X0.375000X-0.062500X0*%
%ADD27RoundRect,0.062500X0.062500X0.375000X-0.062500X0.375000X-0.062500X-0.375000X0.062500X-0.375000X0*%
%ADD28R,5.600000X5.600000*%
%ADD29RoundRect,0.150000X-0.650000X-0.150000X0.650000X-0.150000X0.650000X0.150000X-0.650000X0.150000X0*%
%ADD30R,2.410000X3.100000*%
%ADD31RoundRect,0.225000X-0.225000X-0.250000X0.225000X-0.250000X0.225000X0.250000X-0.225000X0.250000X0*%
%ADD32RoundRect,0.135000X-0.135000X-0.185000X0.135000X-0.185000X0.135000X0.185000X-0.135000X0.185000X0*%
%ADD33RoundRect,0.050000X-0.437500X-0.050000X0.437500X-0.050000X0.437500X0.050000X-0.437500X0.050000X0*%
%ADD34RoundRect,0.050000X-0.337500X-0.050000X0.337500X-0.050000X0.337500X0.050000X-0.337500X0.050000X0*%
%ADD35RoundRect,0.050000X-0.050000X-0.337500X0.050000X-0.337500X0.050000X0.337500X-0.050000X0.337500X0*%
%ADD36RoundRect,0.135000X0.135000X0.185000X-0.135000X0.185000X-0.135000X-0.185000X0.135000X-0.185000X0*%
%ADD37RoundRect,0.162500X0.617500X0.162500X-0.617500X0.162500X-0.617500X-0.162500X0.617500X-0.162500X0*%
%ADD38RoundRect,0.150000X0.825000X0.150000X-0.825000X0.150000X-0.825000X-0.150000X0.825000X-0.150000X0*%
%ADD39C,2.390000*%
%ADD40RoundRect,0.102000X3.730000X3.235000X-3.730000X3.235000X-3.730000X-3.235000X3.730000X-3.235000X0*%
%ADD41R,1.500000X1.000000*%
%ADD42RoundRect,0.140000X0.140000X0.170000X-0.140000X0.170000X-0.140000X-0.170000X0.140000X-0.170000X0*%
%ADD43RoundRect,0.225000X0.250000X-0.225000X0.250000X0.225000X-0.250000X0.225000X-0.250000X-0.225000X0*%
%ADD44RoundRect,0.250001X0.999999X-0.499999X0.999999X0.499999X-0.999999X0.499999X-0.999999X-0.499999X0*%
%ADD45RoundRect,0.135000X-0.185000X0.135000X-0.185000X-0.135000X0.185000X-0.135000X0.185000X0.135000X0*%
%ADD46RoundRect,0.150000X0.512500X0.150000X-0.512500X0.150000X-0.512500X-0.150000X0.512500X-0.150000X0*%
%ADD47RoundRect,0.218750X0.256250X-0.218750X0.256250X0.218750X-0.256250X0.218750X-0.256250X-0.218750X0*%
%ADD48RoundRect,0.218750X-0.218750X-0.256250X0.218750X-0.256250X0.218750X0.256250X-0.218750X0.256250X0*%
%ADD49RoundRect,0.140000X-0.170000X0.140000X-0.170000X-0.140000X0.170000X-0.140000X0.170000X0.140000X0*%
%ADD50RoundRect,0.218750X-0.256250X0.218750X-0.256250X-0.218750X0.256250X-0.218750X0.256250X0.218750X0*%
%ADD51RoundRect,0.135000X0.185000X-0.135000X0.185000X0.135000X-0.185000X0.135000X-0.185000X-0.135000X0*%
%ADD52RoundRect,0.102000X-0.700000X0.400000X-0.700000X-0.400000X0.700000X-0.400000X0.700000X0.400000X0*%
%ADD53RoundRect,0.102000X-0.400000X0.325000X-0.400000X-0.325000X0.400000X-0.325000X0.400000X0.325000X0*%
%ADD54RoundRect,0.325000X-1.175000X0.325000X-1.175000X-0.325000X1.175000X-0.325000X1.175000X0.325000X0*%
%ADD55O,2.900000X1.200000*%
%ADD56RoundRect,0.250000X-0.250000X1.150000X-0.250000X-1.150000X0.250000X-1.150000X0.250000X1.150000X0*%
%ADD57R,1.000000X1.000000*%
%ADD58RoundRect,0.250000X0.250000X-1.000000X0.250000X1.000000X-0.250000X1.000000X-0.250000X-1.000000X0*%
%ADD59FreePoly2,0.000000*%
%ADD60R,1.000000X1.500000*%
%ADD61FreePoly3,0.000000*%
%ADD62RoundRect,0.250000X0.375000X0.850000X-0.375000X0.850000X-0.375000X-0.850000X0.375000X-0.850000X0*%
%ADD63RoundRect,0.112500X0.187500X0.112500X-0.187500X0.112500X-0.187500X-0.112500X0.187500X-0.112500X0*%
%ADD64RoundRect,0.147500X0.147500X0.172500X-0.147500X0.172500X-0.147500X-0.172500X0.147500X-0.172500X0*%
%ADD65R,2.000000X1.100000*%
%ADD66R,0.800000X0.800000*%
%ADD67RoundRect,0.062500X0.062500X-0.350000X0.062500X0.350000X-0.062500X0.350000X-0.062500X-0.350000X0*%
%ADD68RoundRect,0.062500X0.350000X-0.062500X0.350000X0.062500X-0.350000X0.062500X-0.350000X-0.062500X0*%
%ADD69R,3.700000X3.700000*%
%ADD70C,0.990600*%
%ADD71C,0.787400*%
%ADD72RoundRect,0.325000X1.175000X-0.325000X1.175000X0.325000X-1.175000X0.325000X-1.175000X-0.325000X0*%
%ADD73R,1.150000X3.600000*%
%ADD74R,1.300000X0.300000*%
%ADD75R,2.200000X1.800000*%
%ADD76RoundRect,0.075000X-0.075000X-0.475000X0.075000X-0.475000X0.075000X0.475000X-0.075000X0.475000X0*%
%ADD77FreePoly4,0.000000*%
%ADD78FreePoly5,0.000000*%
G04 APERTURE END LIST*
G04 #@! TO.C,JP7*
G36*
X90750000Y-31300000D02*
G01*
X92250000Y-31300000D01*
X92250000Y-31600000D01*
X90750000Y-31600000D01*
X90750000Y-31300000D01*
G37*
G04 #@! TO.C,JP2*
G36*
X57850000Y-91900000D02*
G01*
X59350000Y-91900000D01*
X59350000Y-92200000D01*
X57850000Y-92200000D01*
X57850000Y-91900000D01*
G37*
G04 #@! TO.C,JP3*
G36*
X55250000Y-91900000D02*
G01*
X56750000Y-91900000D01*
X56750000Y-92200000D01*
X55250000Y-92200000D01*
X55250000Y-91900000D01*
G37*
G04 #@! TO.C,JP9*
G36*
X85550000Y-31300000D02*
G01*
X87050000Y-31300000D01*
X87050000Y-31600000D01*
X85550000Y-31600000D01*
X85550000Y-31300000D01*
G37*
G04 #@! TO.C,JP5*
G36*
X72450000Y-89992500D02*
G01*
X73950000Y-89992500D01*
X73950000Y-88492500D01*
X72450000Y-88492500D01*
X72450000Y-89992500D01*
G37*
G04 #@! TO.C,JP6*
G36*
X70150000Y-93250000D02*
G01*
X68650000Y-93250000D01*
X68650000Y-92950000D01*
X70150000Y-92950000D01*
X70150000Y-93250000D01*
G37*
G04 #@! TO.C,JP10*
G36*
X82950000Y-31300000D02*
G01*
X84450000Y-31300000D01*
X84450000Y-31600000D01*
X82950000Y-31600000D01*
X82950000Y-31300000D01*
G37*
G04 #@! TO.C,JP4*
G36*
X62600000Y-100550000D02*
G01*
X62300000Y-100550000D01*
X62300000Y-102050000D01*
X62600000Y-102050000D01*
X62600000Y-100550000D01*
G37*
G04 #@! TO.C,JP8*
G36*
X88150000Y-31300000D02*
G01*
X89650000Y-31300000D01*
X89650000Y-31600000D01*
X88150000Y-31600000D01*
X88150000Y-31300000D01*
G37*
G04 #@! TD*
D10*
G04 #@! TO.C,H2*
X117000000Y-30000000D03*
G04 #@! TD*
G04 #@! TO.C,H1*
X33000000Y-42000000D03*
G04 #@! TD*
G04 #@! TO.C,H7*
X117000000Y-108000000D03*
G04 #@! TD*
G04 #@! TO.C,H6*
X33000000Y-108000000D03*
G04 #@! TD*
G04 #@! TO.C,H4*
X33000000Y-177000000D03*
G04 #@! TD*
G04 #@! TO.C,H3*
X117000000Y-177000000D03*
G04 #@! TD*
D11*
G04 #@! TO.C,C47*
X108830000Y-45960000D03*
X109790000Y-45960000D03*
G04 #@! TD*
D12*
G04 #@! TO.C,C19*
X106675000Y-41900000D03*
X105125000Y-41900000D03*
G04 #@! TD*
D13*
G04 #@! TO.C,C17*
X96000000Y-39525000D03*
X96000000Y-41075000D03*
G04 #@! TD*
D14*
G04 #@! TO.C,C7*
X70350000Y-111860000D03*
X70350000Y-110900000D03*
G04 #@! TD*
D15*
G04 #@! TO.C,J9*
X103570000Y-63850000D03*
G04 #@! TD*
D16*
G04 #@! TO.C,J8*
X113310000Y-46870000D03*
X113310000Y-52650000D03*
D17*
X111865000Y-46510000D03*
X111865000Y-47310000D03*
D18*
X111865000Y-48510000D03*
X111865000Y-49510000D03*
X111865000Y-50010000D03*
X111865000Y-51010000D03*
D17*
X111865000Y-52210000D03*
X111865000Y-53010000D03*
X111865000Y-53010000D03*
X111865000Y-52210000D03*
D18*
X111865000Y-51510000D03*
X111865000Y-50510000D03*
X111865000Y-49010000D03*
X111865000Y-48010000D03*
D17*
X111865000Y-47310000D03*
X111865000Y-46510000D03*
D19*
X116960000Y-45440000D03*
D20*
X112780000Y-45440000D03*
D19*
X116960000Y-54080000D03*
D20*
X112780000Y-54080000D03*
G04 #@! TD*
D15*
G04 #@! TO.C,J10*
X103570000Y-66350000D03*
G04 #@! TD*
D14*
G04 #@! TO.C,C30*
X77300000Y-89580000D03*
X77300000Y-88620000D03*
G04 #@! TD*
D21*
G04 #@! TO.C,U6*
X102062500Y-99350000D03*
X102062500Y-98400000D03*
X102062500Y-97450000D03*
X104337500Y-97450000D03*
X104337500Y-98400000D03*
X104337500Y-99350000D03*
G04 #@! TD*
D11*
G04 #@! TO.C,C13*
X77510000Y-102200000D03*
X78470000Y-102200000D03*
G04 #@! TD*
D22*
G04 #@! TO.C,F1*
X45500000Y-175800000D03*
X42700000Y-175800000D03*
G04 #@! TD*
D23*
G04 #@! TO.C,Y1*
X80590000Y-98300000D03*
X82890000Y-98300000D03*
X82890000Y-100200000D03*
X80590000Y-100200000D03*
G04 #@! TD*
D24*
G04 #@! TO.C,JP7*
X91500000Y-30800000D03*
D25*
X91500000Y-32100000D03*
G04 #@! TD*
D11*
G04 #@! TO.C,C9*
X80300000Y-115900000D03*
X81260000Y-115900000D03*
G04 #@! TD*
D26*
G04 #@! TO.C,U1*
X78537500Y-111950000D03*
X78537500Y-112450000D03*
X78537500Y-112950001D03*
X78537500Y-113450000D03*
X78537500Y-113949999D03*
X78537500Y-114450000D03*
X78537500Y-114950000D03*
X78537500Y-115450001D03*
X78537500Y-115950000D03*
X78537500Y-116449999D03*
X78537500Y-116950000D03*
X78537500Y-117450000D03*
D27*
X77850000Y-118137500D03*
X77350000Y-118137500D03*
X76849999Y-118137500D03*
X76350000Y-118137500D03*
X75850001Y-118137500D03*
X75350000Y-118137500D03*
X74850000Y-118137500D03*
X74349999Y-118137500D03*
X73850000Y-118137500D03*
X73350001Y-118137500D03*
X72850000Y-118137500D03*
X72350000Y-118137500D03*
D26*
X71662500Y-117450000D03*
X71662500Y-116950000D03*
X71662500Y-116449999D03*
X71662500Y-115950000D03*
X71662500Y-115450001D03*
X71662500Y-114950000D03*
X71662500Y-114450000D03*
X71662500Y-113949999D03*
X71662500Y-113450000D03*
X71662500Y-112950001D03*
X71662500Y-112450000D03*
X71662500Y-111950000D03*
D27*
X72350000Y-111262500D03*
X72850000Y-111262500D03*
X73350001Y-111262500D03*
X73850000Y-111262500D03*
X74349999Y-111262500D03*
X74850000Y-111262500D03*
X75350000Y-111262500D03*
X75850001Y-111262500D03*
X76350000Y-111262500D03*
X76849999Y-111262500D03*
X77350000Y-111262500D03*
X77850000Y-111262500D03*
D28*
X75100000Y-114700000D03*
G04 #@! TD*
D29*
G04 #@! TO.C,U2*
X101050000Y-37205000D03*
X101050000Y-35935000D03*
X101050000Y-34665000D03*
X101050000Y-33395000D03*
X106350000Y-33395000D03*
X106350000Y-34665000D03*
X106350000Y-35935000D03*
X106350000Y-37205000D03*
D30*
X103700000Y-35300000D03*
G04 #@! TD*
D11*
G04 #@! TO.C,C23*
X77510000Y-100200000D03*
X78470000Y-100200000D03*
G04 #@! TD*
D31*
G04 #@! TO.C,C25*
X109225000Y-39000000D03*
X110775000Y-39000000D03*
G04 #@! TD*
D32*
G04 #@! TO.C,R16*
X95990000Y-113600000D03*
X97010000Y-113600000D03*
G04 #@! TD*
D33*
G04 #@! TO.C,U11*
X101000000Y-105700000D03*
D34*
X100900000Y-105300000D03*
D35*
X101162500Y-104637500D03*
X101562500Y-104637500D03*
X101962500Y-104637500D03*
D34*
X102225000Y-105300000D03*
X102225000Y-105700000D03*
D35*
X101962500Y-106362500D03*
X101562500Y-106362500D03*
X101162500Y-106362500D03*
G04 #@! TD*
D36*
G04 #@! TO.C,R21*
X70320000Y-103300000D03*
X69300000Y-103300000D03*
G04 #@! TD*
D32*
G04 #@! TO.C,R17*
X109890000Y-31800000D03*
X110910000Y-31800000D03*
G04 #@! TD*
D37*
G04 #@! TO.C,U15*
X47090000Y-114125000D03*
X47090000Y-115075000D03*
X47090000Y-116025000D03*
X44390000Y-116025000D03*
X44390000Y-115075000D03*
X44390000Y-114125000D03*
G04 #@! TD*
D38*
G04 #@! TO.C,U4*
X66675000Y-92895000D03*
X66675000Y-94165000D03*
X66675000Y-95435000D03*
X66675000Y-96705000D03*
X61725000Y-96705000D03*
X61725000Y-95435000D03*
X61725000Y-94165000D03*
X61725000Y-92895000D03*
G04 #@! TD*
D39*
G04 #@! TO.C,BT1*
X39175000Y-171700000D03*
D40*
X35325000Y-163700000D03*
X114665000Y-163700000D03*
G04 #@! TD*
D13*
G04 #@! TO.C,C32*
X42400000Y-114215000D03*
X42400000Y-115765000D03*
G04 #@! TD*
D31*
G04 #@! TO.C,C26*
X109225000Y-42000000D03*
X110775000Y-42000000D03*
G04 #@! TD*
D15*
G04 #@! TO.C,J7*
X103570000Y-61850000D03*
G04 #@! TD*
D14*
G04 #@! TO.C,C15*
X68990000Y-101800000D03*
X68990000Y-100840000D03*
G04 #@! TD*
D41*
G04 #@! TO.C,JP2*
X58600000Y-91400000D03*
X58600000Y-92700000D03*
G04 #@! TD*
D42*
G04 #@! TO.C,C29*
X85270000Y-97900000D03*
X84310000Y-97900000D03*
G04 #@! TD*
D43*
G04 #@! TO.C,C21*
X112500000Y-31775000D03*
X112500000Y-30225000D03*
G04 #@! TD*
D11*
G04 #@! TO.C,C8*
X78740000Y-110200000D03*
X79700000Y-110200000D03*
G04 #@! TD*
D42*
G04 #@! TO.C,C10*
X71480000Y-119000000D03*
X70520000Y-119000000D03*
G04 #@! TD*
D44*
G04 #@! TO.C,L1*
X110700000Y-37250000D03*
X110700000Y-33550000D03*
G04 #@! TD*
D45*
G04 #@! TO.C,R7*
X76300000Y-90590000D03*
X76300000Y-91610000D03*
G04 #@! TD*
D32*
G04 #@! TO.C,R26*
X98780000Y-107700000D03*
X99800000Y-107700000D03*
G04 #@! TD*
D46*
G04 #@! TO.C,U8*
X88837500Y-61850000D03*
X88837500Y-62800000D03*
X88837500Y-63750000D03*
X86562500Y-63750000D03*
X86562500Y-62800000D03*
X86562500Y-61850000D03*
G04 #@! TD*
D47*
G04 #@! TO.C,D3*
X95400000Y-34787500D03*
X95400000Y-33212500D03*
G04 #@! TD*
D48*
G04 #@! TO.C,D6*
X72500000Y-107300000D03*
X74075000Y-107300000D03*
G04 #@! TD*
D41*
G04 #@! TO.C,JP3*
X56000000Y-91400000D03*
X56000000Y-92700000D03*
G04 #@! TD*
D49*
G04 #@! TO.C,C31*
X74700000Y-93720000D03*
X74700000Y-94680000D03*
G04 #@! TD*
D42*
G04 #@! TO.C,C28*
X85270000Y-100700000D03*
X84310000Y-100700000D03*
G04 #@! TD*
D36*
G04 #@! TO.C,R11*
X109790000Y-52090000D03*
X108770000Y-52090000D03*
G04 #@! TD*
D50*
G04 #@! TO.C,D2*
X93700000Y-33212500D03*
X93700000Y-34787500D03*
G04 #@! TD*
D51*
G04 #@! TO.C,R23*
X48800000Y-116100000D03*
X48800000Y-115080000D03*
G04 #@! TD*
D11*
G04 #@! TO.C,C49*
X106100000Y-52080000D03*
X107060000Y-52080000D03*
G04 #@! TD*
D36*
G04 #@! TO.C,R28*
X69600000Y-95300000D03*
X68580000Y-95300000D03*
G04 #@! TD*
D49*
G04 #@! TO.C,C6*
X80150000Y-113820000D03*
X80150000Y-114780000D03*
G04 #@! TD*
D52*
G04 #@! TO.C,PWR_BUTTON1*
X117544543Y-65209611D03*
X117544543Y-66359611D03*
X117544543Y-67509611D03*
D53*
X119296571Y-63884611D03*
X119296571Y-68834611D03*
G04 #@! TD*
D24*
G04 #@! TO.C,JP9*
X86300000Y-30800000D03*
D25*
X86300000Y-32100000D03*
G04 #@! TD*
D36*
G04 #@! TO.C,R27*
X66500000Y-98100000D03*
X65480000Y-98100000D03*
G04 #@! TD*
D42*
G04 #@! TO.C,C45*
X110175000Y-43700000D03*
X109215000Y-43700000D03*
G04 #@! TD*
D51*
G04 #@! TO.C,R2*
X74050000Y-109620000D03*
X74050000Y-108600000D03*
G04 #@! TD*
D54*
G04 #@! TO.C,J4*
X107350000Y-94800000D03*
X107350000Y-97300000D03*
X107350000Y-99300000D03*
X107350000Y-101800000D03*
D55*
X111050000Y-91900000D03*
X111050000Y-104700000D03*
G04 #@! TD*
D13*
G04 #@! TO.C,C3*
X99010000Y-37525000D03*
X99010000Y-39075000D03*
G04 #@! TD*
D45*
G04 #@! TO.C,R10*
X73300000Y-91190000D03*
X73300000Y-92210000D03*
G04 #@! TD*
D56*
G04 #@! TO.C,SW1*
X34700000Y-80200000D03*
X34700000Y-86000000D03*
X38700000Y-80200000D03*
X38700000Y-86000000D03*
G04 #@! TD*
D51*
G04 #@! TO.C,R15*
X106900000Y-32010000D03*
X106900000Y-30990000D03*
G04 #@! TD*
D36*
G04 #@! TO.C,R12*
X109800000Y-47500000D03*
X108780000Y-47500000D03*
G04 #@! TD*
D57*
G04 #@! TO.C,TP3*
X80800000Y-118300000D03*
G04 #@! TD*
D14*
G04 #@! TO.C,C12*
X73090000Y-94800000D03*
X73090000Y-93840000D03*
G04 #@! TD*
D58*
G04 #@! TO.C,J1*
X104485000Y-88525000D03*
X101945000Y-88525000D03*
X99405000Y-88525000D03*
X96865000Y-88525000D03*
X94325000Y-88525000D03*
X91785000Y-88525000D03*
X89245000Y-88525000D03*
X86705000Y-88525000D03*
G04 #@! TD*
D59*
G04 #@! TO.C,JP5*
X71900000Y-89242500D03*
D60*
X73200000Y-89242500D03*
D61*
X74500000Y-89242500D03*
G04 #@! TD*
D58*
G04 #@! TO.C,J2*
X68655000Y-88525000D03*
X66115000Y-88525000D03*
X63575000Y-88525000D03*
X61035000Y-88525000D03*
X58495000Y-88525000D03*
X55955000Y-88525000D03*
X53415000Y-88525000D03*
X50875000Y-88525000D03*
X48335000Y-88525000D03*
X45795000Y-88525000D03*
G04 #@! TD*
D45*
G04 #@! TO.C,R4*
X71300000Y-91190000D03*
X71300000Y-92210000D03*
G04 #@! TD*
D49*
G04 #@! TO.C,C16*
X73200000Y-103920000D03*
X73200000Y-104880000D03*
G04 #@! TD*
D47*
G04 #@! TO.C,D5*
X98800000Y-34787500D03*
X98800000Y-33212500D03*
G04 #@! TD*
D11*
G04 #@! TO.C,C11*
X79850000Y-111762500D03*
X80810000Y-111762500D03*
G04 #@! TD*
D42*
G04 #@! TO.C,C1*
X99117500Y-109200000D03*
X98157500Y-109200000D03*
G04 #@! TD*
G04 #@! TO.C,C27*
X68770000Y-99100000D03*
X67810000Y-99100000D03*
G04 #@! TD*
D15*
G04 #@! TO.C,J6*
X103570000Y-59350000D03*
G04 #@! TD*
D62*
G04 #@! TO.C,L2*
X95587500Y-109700000D03*
X93437500Y-109700000D03*
G04 #@! TD*
D45*
G04 #@! TO.C,R19*
X77800000Y-93790000D03*
X77800000Y-94810000D03*
G04 #@! TD*
D36*
G04 #@! TO.C,R24*
X89400000Y-57800000D03*
X88380000Y-57800000D03*
G04 #@! TD*
D45*
G04 #@! TO.C,R9*
X75700000Y-93690000D03*
X75700000Y-94710000D03*
G04 #@! TD*
D63*
G04 #@! TO.C,D13*
X50950000Y-113490000D03*
X48850000Y-113490000D03*
G04 #@! TD*
D36*
G04 #@! TO.C,R20*
X70320000Y-104300000D03*
X69300000Y-104300000D03*
G04 #@! TD*
D51*
G04 #@! TO.C,R1*
X90312500Y-111210000D03*
X90312500Y-110190000D03*
G04 #@! TD*
D46*
G04 #@! TO.C,U7*
X99775000Y-110550000D03*
X99775000Y-111500000D03*
X99775000Y-112450000D03*
X97500000Y-112450000D03*
X97500000Y-111500000D03*
X97500000Y-110550000D03*
G04 #@! TD*
D45*
G04 #@! TO.C,R31*
X97100000Y-30880000D03*
X97100000Y-31900000D03*
G04 #@! TD*
D36*
G04 #@! TO.C,R22*
X40200000Y-114900000D03*
X39180000Y-114900000D03*
G04 #@! TD*
D41*
G04 #@! TO.C,JP6*
X69400000Y-93750000D03*
X69400000Y-92450000D03*
G04 #@! TD*
D13*
G04 #@! TO.C,C2*
X97500000Y-37525000D03*
X97500000Y-39075000D03*
G04 #@! TD*
D14*
G04 #@! TO.C,C14*
X77200000Y-97080000D03*
X77200000Y-96120000D03*
G04 #@! TD*
D51*
G04 #@! TO.C,R5*
X84370000Y-99820000D03*
X84370000Y-98800000D03*
G04 #@! TD*
D31*
G04 #@! TO.C,C24*
X109225000Y-40500000D03*
X110775000Y-40500000D03*
G04 #@! TD*
D11*
G04 #@! TO.C,C50*
X106140000Y-47520000D03*
X107100000Y-47520000D03*
G04 #@! TD*
D42*
G04 #@! TO.C,C44*
X50960000Y-112000000D03*
X50000000Y-112000000D03*
G04 #@! TD*
D51*
G04 #@! TO.C,R13*
X78800000Y-94800000D03*
X78800000Y-93780000D03*
G04 #@! TD*
D64*
G04 #@! TO.C,FB2*
X112100000Y-43700000D03*
X111130000Y-43700000D03*
G04 #@! TD*
D50*
G04 #@! TO.C,D8*
X77800000Y-90912500D03*
X77800000Y-92487500D03*
G04 #@! TD*
D65*
G04 #@! TO.C,D1*
X95092500Y-107300000D03*
D66*
X93192500Y-107300000D03*
G04 #@! TD*
D67*
G04 #@! TO.C,U3*
X75127500Y-102057500D03*
X74627500Y-102057500D03*
X74127500Y-102057500D03*
X73627500Y-102057500D03*
X73127500Y-102057500D03*
X72627500Y-102057500D03*
X72127500Y-102057500D03*
X71627500Y-102057500D03*
X71127500Y-102057500D03*
D68*
X70190000Y-101120000D03*
X70190000Y-100620000D03*
X70190000Y-100120000D03*
X70190000Y-99620000D03*
X70190000Y-99120000D03*
X70190000Y-98620000D03*
X70190000Y-98120000D03*
X70190000Y-97620000D03*
X70190000Y-97120000D03*
D67*
X71127500Y-96182500D03*
X71627500Y-96182500D03*
X72127500Y-96182500D03*
X72627500Y-96182500D03*
X73127500Y-96182500D03*
X73627500Y-96182500D03*
X74127500Y-96182500D03*
X74627500Y-96182500D03*
X75127500Y-96182500D03*
D68*
X76065000Y-97120000D03*
X76065000Y-97620000D03*
X76065000Y-98120000D03*
X76065000Y-98620000D03*
X76065000Y-99120000D03*
X76065000Y-99620000D03*
X76065000Y-100120000D03*
X76065000Y-100620000D03*
X76065000Y-101120000D03*
D69*
X73127500Y-99120000D03*
G04 #@! TD*
D36*
G04 #@! TO.C,R33*
X36600000Y-89200000D03*
X35580000Y-89200000D03*
G04 #@! TD*
D24*
G04 #@! TO.C,JP10*
X83700000Y-30800000D03*
D25*
X83700000Y-32100000D03*
G04 #@! TD*
D45*
G04 #@! TO.C,R14*
X96200000Y-37290000D03*
X96200000Y-38310000D03*
G04 #@! TD*
D60*
G04 #@! TO.C,JP4*
X63100000Y-101300000D03*
X61800000Y-101300000D03*
G04 #@! TD*
D70*
G04 #@! TO.C,J3*
X66565000Y-113070000D03*
X65549000Y-107990000D03*
X67581000Y-107990000D03*
D71*
X65930000Y-111800000D03*
X67200000Y-111800000D03*
X65930000Y-110530000D03*
X67200000Y-110530000D03*
X65930000Y-109260000D03*
X67200000Y-109260000D03*
G04 #@! TD*
D12*
G04 #@! TO.C,C18*
X106675000Y-40400000D03*
X105125000Y-40400000D03*
G04 #@! TD*
D72*
G04 #@! TO.C,J5*
X42650000Y-101800000D03*
X42650000Y-99300000D03*
X42650000Y-97300000D03*
X42650000Y-94800000D03*
D55*
X38950000Y-104700000D03*
X38950000Y-91900000D03*
G04 #@! TD*
D32*
G04 #@! TO.C,R8*
X77480000Y-101200000D03*
X78500000Y-101200000D03*
G04 #@! TD*
D45*
G04 #@! TO.C,R30*
X95400000Y-30900000D03*
X95400000Y-31920000D03*
G04 #@! TD*
G04 #@! TO.C,R18*
X89312500Y-110190000D03*
X89312500Y-111210000D03*
G04 #@! TD*
D73*
G04 #@! TO.C,L3*
X44225000Y-110890000D03*
X47175000Y-110890000D03*
G04 #@! TD*
D12*
G04 #@! TO.C,C20*
X106675000Y-38900000D03*
X105125000Y-38900000D03*
G04 #@! TD*
D31*
G04 #@! TO.C,C22*
X109425000Y-30200000D03*
X110975000Y-30200000D03*
G04 #@! TD*
D43*
G04 #@! TO.C,C5*
X91662500Y-111675000D03*
X91662500Y-110125000D03*
G04 #@! TD*
D31*
G04 #@! TO.C,C4*
X94237500Y-111900000D03*
X95787500Y-111900000D03*
G04 #@! TD*
D57*
G04 #@! TO.C,TP2*
X84500000Y-116500000D03*
G04 #@! TD*
D50*
G04 #@! TO.C,D4*
X97100000Y-33212500D03*
X97100000Y-34787500D03*
G04 #@! TD*
D74*
G04 #@! TO.C,J12*
X55000000Y-55000000D03*
X55000000Y-54500000D03*
X55000000Y-54000000D03*
X55000000Y-53500000D03*
X55000000Y-53000000D03*
X55000000Y-52500000D03*
X55000000Y-52000000D03*
X55000000Y-51500000D03*
X55000000Y-51000000D03*
X55000000Y-50500000D03*
X55000000Y-50000000D03*
X55000000Y-49500000D03*
X55000000Y-49000000D03*
X55000000Y-48500000D03*
X55000000Y-48000000D03*
X55000000Y-47500000D03*
X55000000Y-47000000D03*
X55000000Y-46500000D03*
X55000000Y-46000000D03*
X55000000Y-45500000D03*
D75*
X51750000Y-56900000D03*
X51750000Y-43600000D03*
G04 #@! TD*
D11*
G04 #@! TO.C,C33*
X101500000Y-107600000D03*
X102460000Y-107600000D03*
G04 #@! TD*
D76*
G04 #@! TO.C,J11*
X70215000Y-59125000D03*
X70715000Y-59125000D03*
X71215000Y-59125000D03*
X71715000Y-59125000D03*
X72215000Y-59125000D03*
X72715000Y-59125000D03*
X73215000Y-59125000D03*
X73715000Y-59125000D03*
X74215000Y-59125000D03*
X74715000Y-59125000D03*
X75215000Y-59125000D03*
X75715000Y-59125000D03*
X76215000Y-59125000D03*
X76715000Y-59125000D03*
X77215000Y-59125000D03*
X77715000Y-59125000D03*
X78215000Y-59125000D03*
X78715000Y-59125000D03*
X79215000Y-59125000D03*
X79715000Y-59125000D03*
D77*
X67965000Y-58000000D03*
D78*
X81965000Y-58000000D03*
G04 #@! TD*
D45*
G04 #@! TO.C,R3*
X72300000Y-91190000D03*
X72300000Y-92210000D03*
G04 #@! TD*
G04 #@! TO.C,R6*
X76300000Y-88590000D03*
X76300000Y-89610000D03*
G04 #@! TD*
D46*
G04 #@! TO.C,U5*
X48137500Y-97250000D03*
X48137500Y-98200000D03*
X48137500Y-99150000D03*
X45862500Y-99150000D03*
X45862500Y-98200000D03*
X45862500Y-97250000D03*
G04 #@! TD*
D36*
G04 #@! TO.C,R25*
X87380000Y-57800000D03*
X86360000Y-57800000D03*
G04 #@! TD*
D57*
G04 #@! TO.C,TP1*
X54400000Y-111000000D03*
G04 #@! TD*
D45*
G04 #@! TO.C,R32*
X98800000Y-30900000D03*
X98800000Y-31920000D03*
G04 #@! TD*
D46*
G04 #@! TO.C,U12*
X109275000Y-48850000D03*
X109275000Y-49800000D03*
X109275000Y-50750000D03*
X107000000Y-50750000D03*
X107000000Y-49800000D03*
X107000000Y-48850000D03*
G04 #@! TD*
D45*
G04 #@! TO.C,R29*
X93700000Y-30880000D03*
X93700000Y-31900000D03*
G04 #@! TD*
D24*
G04 #@! TO.C,JP8*
X88900000Y-30800000D03*
D25*
X88900000Y-32100000D03*
G04 #@! TD*
M02*
