G04 #@! TF.GenerationSoftware,KiCad,Pcbnew,9.0.7*
G04 #@! TF.CreationDate,2026-01-07T21:20:25+01:00*
G04 #@! TF.ProjectId,blackpants,626c6163-6b70-4616-9e74-732e6b696361,V2.5*
G04 #@! TF.SameCoordinates,Original*
G04 #@! TF.FileFunction,Other,Comment*
%FSLAX46Y46*%
G04 Gerber Fmt 4.6, Leading zero omitted, Abs format (unit mm)*
G04 Created by KiCad (PCBNEW 9.0.7) date 2026-01-07 21:20:25*
%MOMM*%
%LPD*%
G01*
G04 APERTURE LIST*
%ADD10C,0.070000*%
%ADD11C,0.150000*%
G04 APERTURE END LIST*
D10*
X66746407Y-111768095D02*
X66346407Y-111768095D01*
X66746407Y-111539524D02*
X66517836Y-111710953D01*
X66346407Y-111539524D02*
X66574979Y-111768095D01*
X66536883Y-111368095D02*
X66536883Y-111234762D01*
X66746407Y-111177619D02*
X66746407Y-111368095D01*
X66746407Y-111368095D02*
X66346407Y-111368095D01*
X66346407Y-111368095D02*
X66346407Y-111177619D01*
X66536883Y-111006190D02*
X66536883Y-110872857D01*
X66746407Y-110815714D02*
X66746407Y-111006190D01*
X66746407Y-111006190D02*
X66346407Y-111006190D01*
X66346407Y-111006190D02*
X66346407Y-110815714D01*
X66746407Y-110644285D02*
X66346407Y-110644285D01*
X66346407Y-110644285D02*
X66346407Y-110491904D01*
X66346407Y-110491904D02*
X66365455Y-110453809D01*
X66365455Y-110453809D02*
X66384502Y-110434762D01*
X66384502Y-110434762D02*
X66422598Y-110415714D01*
X66422598Y-110415714D02*
X66479740Y-110415714D01*
X66479740Y-110415714D02*
X66517836Y-110434762D01*
X66517836Y-110434762D02*
X66536883Y-110453809D01*
X66536883Y-110453809D02*
X66555931Y-110491904D01*
X66555931Y-110491904D02*
X66555931Y-110644285D01*
X66346407Y-110168095D02*
X66346407Y-110091904D01*
X66346407Y-110091904D02*
X66365455Y-110053809D01*
X66365455Y-110053809D02*
X66403550Y-110015714D01*
X66403550Y-110015714D02*
X66479740Y-109996666D01*
X66479740Y-109996666D02*
X66613074Y-109996666D01*
X66613074Y-109996666D02*
X66689264Y-110015714D01*
X66689264Y-110015714D02*
X66727360Y-110053809D01*
X66727360Y-110053809D02*
X66746407Y-110091904D01*
X66746407Y-110091904D02*
X66746407Y-110168095D01*
X66746407Y-110168095D02*
X66727360Y-110206190D01*
X66727360Y-110206190D02*
X66689264Y-110244285D01*
X66689264Y-110244285D02*
X66613074Y-110263333D01*
X66613074Y-110263333D02*
X66479740Y-110263333D01*
X66479740Y-110263333D02*
X66403550Y-110244285D01*
X66403550Y-110244285D02*
X66365455Y-110206190D01*
X66365455Y-110206190D02*
X66346407Y-110168095D01*
X66346407Y-109825237D02*
X66670217Y-109825237D01*
X66670217Y-109825237D02*
X66708312Y-109806190D01*
X66708312Y-109806190D02*
X66727360Y-109787142D01*
X66727360Y-109787142D02*
X66746407Y-109749047D01*
X66746407Y-109749047D02*
X66746407Y-109672856D01*
X66746407Y-109672856D02*
X66727360Y-109634761D01*
X66727360Y-109634761D02*
X66708312Y-109615714D01*
X66708312Y-109615714D02*
X66670217Y-109596666D01*
X66670217Y-109596666D02*
X66346407Y-109596666D01*
X66346407Y-109463332D02*
X66346407Y-109234761D01*
X66746407Y-109349047D02*
X66346407Y-109349047D01*
D11*
G04 #@! TO.C,H2*
X119700000Y-30000000D02*
G75*
G02*
X114300000Y-30000000I-2700000J0D01*
G01*
X114300000Y-30000000D02*
G75*
G02*
X119700000Y-30000000I2700000J0D01*
G01*
G04 #@! TO.C,H1*
X35700000Y-42000000D02*
G75*
G02*
X30300000Y-42000000I-2700000J0D01*
G01*
X30300000Y-42000000D02*
G75*
G02*
X35700000Y-42000000I2700000J0D01*
G01*
G04 #@! TO.C,H7*
X119700000Y-108000000D02*
G75*
G02*
X114300000Y-108000000I-2700000J0D01*
G01*
X114300000Y-108000000D02*
G75*
G02*
X119700000Y-108000000I2700000J0D01*
G01*
G04 #@! TO.C,H6*
X35700000Y-108000000D02*
G75*
G02*
X30300000Y-108000000I-2700000J0D01*
G01*
X30300000Y-108000000D02*
G75*
G02*
X35700000Y-108000000I2700000J0D01*
G01*
G04 #@! TO.C,H4*
X35700000Y-177000000D02*
G75*
G02*
X30300000Y-177000000I-2700000J0D01*
G01*
X30300000Y-177000000D02*
G75*
G02*
X35700000Y-177000000I2700000J0D01*
G01*
G04 #@! TO.C,H3*
X119700000Y-177000000D02*
G75*
G02*
X114300000Y-177000000I-2700000J0D01*
G01*
X114300000Y-177000000D02*
G75*
G02*
X119700000Y-177000000I2700000J0D01*
G01*
G04 #@! TD*
M02*
