M48
; DRILL file {KiCad 9.0.4} date 2025-09-19T16:13:04+0200
; FORMAT={-:-/ absolute / metric / decimal}
; #@! TF.CreationDate,2025-09-19T16:13:04+02:00
; #@! TF.GenerationSoftware,Kicad,Pcbnew,9.0.4
; #@! TF.FileFunction,Plated,1,4,PTH
FMAT,2
METRIC
; #@! TA.AperFunction,Plated,PTH,ViaDrill
T1C0.200
; #@! TA.AperFunction,Plated,PTH,ComponentDrill
T2C0.200
; #@! TA.AperFunction,Plated,PTH,ViaDrill
T3C0.300
; #@! TA.AperFunction,Plated,PTH,ComponentDrill
T4C0.600
; #@! TA.AperFunction,Plated,PTH,ComponentDrill
T5C2.700
%
G90
G05
T1
X30.5Y-44.5
X30.5Y-46.5
X30.5Y-48.7
X30.5Y-50.7
X30.5Y-52.7
X30.5Y-54.7
X30.5Y-56.7
X30.5Y-58.6
X30.5Y-60.6
X30.5Y-62.6
X30.5Y-64.6
X30.5Y-66.6
X30.5Y-68.6
X30.5Y-70.6
X30.5Y-72.5
X30.5Y-74.5
X30.5Y-76.5
X30.5Y-78.5
X30.5Y-80.5
X30.5Y-82.5
X30.5Y-84.5
X30.5Y-86.4
X30.5Y-88.4
X30.5Y-90.4
X30.5Y-92.4
X30.5Y-94.4
X30.5Y-96.5
X30.5Y-98.5
X30.5Y-100.5
X30.5Y-102.5
X30.5Y-104.5
X30.5Y-110.5
X30.5Y-112.5
X30.5Y-114.5
X30.5Y-116.5
X30.5Y-118.5
X30.5Y-120.5
X30.5Y-122.5
X30.5Y-124.5
X30.5Y-126.5
X30.5Y-128.5
X30.5Y-130.5
X30.5Y-132.5
X30.5Y-134.5
X30.5Y-136.5
X30.5Y-138.5
X30.5Y-140.5
X30.5Y-142.5
X30.5Y-144.5
X30.5Y-146.5
X30.5Y-148.5
X30.5Y-150.5
X30.5Y-152.5
X30.5Y-154.5
X30.5Y-156.5
X30.5Y-158.5
X36.0Y-40.0
X38.0Y-40.0
X40.0Y-40.0
X42.0Y-40.0
X44.0Y-40.0
X46.0Y-40.0
X48.0Y-40.0
X50.0Y-40.0
X52.0Y-40.0
X54.0Y-40.0
X55.8Y-29.0
X55.8Y-31.0
X55.8Y-33.0
X55.8Y-35.0
X55.8Y-37.0
X55.8Y-39.0
X57.5Y-27.5
X59.5Y-27.5
X61.5Y-27.5
X63.5Y-27.5
X65.5Y-27.5
X67.5Y-27.5
X69.5Y-27.5
X71.5Y-27.5
X73.5Y-27.5
X75.5Y-27.5
X77.5Y-27.5
X79.5Y-27.5
X81.5Y-27.5
X83.5Y-27.5
X85.5Y-27.5
X87.5Y-27.5
X89.5Y-27.5
X91.5Y-27.5
X93.5Y-27.5
X95.5Y-27.5
X97.5Y-27.5
X99.5Y-27.5
X101.5Y-27.5
X103.5Y-27.5
X105.1Y-28.575
X105.5Y-27.5
X107.1Y-28.575
X107.5Y-27.5
X109.1Y-28.575
X109.5Y-27.5
X111.5Y-27.5
X113.5Y-27.5
X119.5Y-33.9
X119.5Y-35.9
X119.5Y-37.9
X119.5Y-39.9
X119.5Y-41.9
X119.5Y-43.9
X119.5Y-56.5
X119.5Y-58.5
X119.5Y-60.5
X119.5Y-62.5
X119.5Y-70.5
X119.5Y-72.5
X119.5Y-74.5
X119.5Y-76.5
X119.5Y-78.5
X119.5Y-80.5
X119.5Y-82.5
X119.5Y-84.5
X119.5Y-86.5
X119.5Y-88.5
X119.5Y-90.5
X119.5Y-92.5
X119.5Y-94.5
X119.5Y-96.5
X119.5Y-98.5
X119.5Y-100.5
X119.5Y-102.5
X119.5Y-104.5
X119.5Y-110.5
X119.5Y-112.5
X119.5Y-114.5
X119.5Y-116.5
X119.5Y-118.5
X119.5Y-120.5
X119.5Y-122.5
X119.5Y-124.5
X119.5Y-126.5
X119.5Y-128.5
X119.5Y-130.5
X119.5Y-132.5
X119.5Y-134.5
X119.5Y-136.5
X119.5Y-138.5
X119.5Y-140.5
X119.5Y-142.5
X119.5Y-144.5
X119.5Y-146.5
X119.5Y-148.5
X119.5Y-150.5
X119.5Y-152.5
X119.5Y-154.5
X119.5Y-156.5
X119.5Y-158.5
X119.5Y-160.5
X119.5Y-162.5
X119.5Y-164.5
X119.5Y-166.5
X119.5Y-168.5
X119.5Y-170.5
X119.5Y-172.5
T2
X102.745Y-34.0
X102.745Y-35.3
X102.745Y-36.6
X104.655Y-34.0
X104.655Y-35.3
X104.655Y-36.6
T3
X35.45Y-155.01
X36.5Y-176.75
X37.25Y-175.5
X39.45Y-154.01
X39.5Y-178.5
X40.0Y-179.0
X40.5Y-178.5
X40.85Y-120.71
X40.9Y-179.0
X41.1Y-112.9
X41.4Y-178.5
X42.0Y-106.0
X42.0Y-108.1
X42.9Y-110.3
X42.9Y-111.0
X42.9Y-111.7
X42.9Y-112.4
X45.75Y-151.21
X49.1Y-98.2
X49.4Y-96.8
X49.4Y-99.6
X49.7Y-116.1
X49.85Y-119.91
X49.9Y-114.9
X50.96Y-112.6
X52.5Y-158.6
X53.0Y-113.4
X54.0Y-177.5
X56.0Y-92.75
X56.0Y-174.25
X56.453Y-111.347
X56.5Y-46.0
X56.5Y-47.0
X56.5Y-48.0
X56.5Y-49.0
X56.5Y-50.0
X56.5Y-51.5
X56.5Y-53.0
X56.5Y-54.5
X56.5Y-173.75
X56.5Y-174.75
X56.6Y-113.4
X57.0Y-48.5
X57.0Y-49.5
X57.0Y-173.25
X57.0Y-174.25
X57.2Y-112.0
X57.25Y-175.0
X57.5Y-172.75
X57.5Y-173.75
X57.55Y-147.21
X57.75Y-174.5
X58.0Y-173.25
X58.25Y-174.0
X58.5Y-92.75
X59.0Y-158.6
X59.15Y-119.01
X59.6Y-158.6
X59.9Y-92.9
X60.05Y-118.0
X60.05Y-121.51
X60.2Y-158.6
X61.0Y-179.0
X61.8Y-101.3
X62.25Y-118.71
X63.1Y-101.3
X63.7Y-94.1
X63.85Y-123.91
X63.923Y-112.6
X63.95Y-146.51
X65.3Y-112.7
X65.55Y-143.81
X67.3Y-98.3
X67.5Y-97.6
X67.702Y-111.198
X68.4Y-116.1
X68.7Y-97.8
X69.2Y-98.2
X69.31Y-102.6
X69.31Y-111.12
X69.35Y-119.11
X69.4Y-91.4
X69.57Y-113.63
X69.59Y-101.8
X69.7Y-111.891
X69.8Y-105.1
X70.03Y-113.17
X70.387Y-116.595
X70.4Y-95.3
X70.465Y-117.23
X70.5Y-58.0
X70.756Y-117.8
X71.3Y-92.9
X71.5Y-58.0
X71.55Y-120.65
X71.55Y-122.1
X71.8Y-93.6
X71.8Y-105.4
X72.0Y-119.0
X72.3Y-92.9
X72.3Y-109.1
X72.5Y-58.0
X73.0Y-57.5
X73.0Y-105.9
X73.1Y-101.36
X73.127Y-95.4
X73.3Y-119.3
X73.5Y-58.0
X73.841Y-118.863
X74.14Y-58.0
X74.252Y-120.59
X74.59Y-60.5
X74.6Y-89.3
X74.7Y-92.9
X75.1Y-114.7
X75.7Y-93.01
X75.9Y-103.0
X75.9Y-120.4
X76.065Y-101.675
X76.265Y-60.5
X76.3Y-87.6
X76.79Y-97.62
X77.3Y-103.9
X77.3Y-105.6
X77.3Y-107.2
X77.765Y-60.5
X78.2Y-96.7
X78.6Y-111.15
X78.8Y-120.0
X79.0Y-92.9
X79.0Y-98.0
X79.2Y-118.85
X79.237Y-111.088
X79.265Y-60.5
X79.3Y-103.9
X79.3Y-105.6
X79.3Y-107.2
X79.3Y-111.95
X79.4Y-114.9
X79.5Y-115.95
X79.6Y-113.5
X80.0Y-112.6
X80.5Y-110.5
X80.6Y-122.75
X81.3Y-103.9
X81.3Y-105.6
X81.45Y-122.81
X81.5Y-112.9
X81.7Y-113.8
X82.0Y-117.7
X82.619Y-109.819
X83.3Y-103.9
X83.3Y-105.6
X83.3Y-107.2
X83.7Y-99.3
X83.8Y-115.1
X84.25Y-122.91
X84.35Y-143.71
X85.3Y-103.9
X85.3Y-105.6
X85.3Y-107.2
X85.6Y-114.345
X86.411Y-113.589
X87.3Y-103.9
X87.3Y-105.6
X87.3Y-107.2
X87.55Y-155.65
X89.3Y-103.9
X89.3Y-105.6
X89.3Y-107.2
X89.8Y-111.6
X90.8Y-109.0
X91.3Y-105.0
X91.5Y-109.0
X91.9Y-113.7
X92.1Y-106.8
X92.1Y-107.4
X92.1Y-108.0
X92.2Y-109.0
X92.6Y-103.7
X93.2Y-111.5
X93.2Y-112.1
X93.5Y-60.5
X93.8Y-102.4
X94.4Y-114.1
X94.5Y-109.1
X94.5Y-110.4
X94.9Y-113.6
X95.4Y-113.1
X96.6Y-42.8
X97.05Y-116.3
X97.1Y-41.8
X97.6Y-40.8
X97.6Y-42.8
X98.0Y-61.0
X98.0Y-64.6
X98.0Y-107.7
X98.05Y-116.8
X98.05Y-120.61
X98.1Y-41.8
X98.1Y-105.175
X98.1Y-105.825
X98.18Y-102.575
X98.18Y-103.225
X98.3Y-59.9
X98.6Y-40.8
X98.6Y-42.8
X98.7Y-111.6
X98.7Y-112.5
X99.05Y-147.61
X99.08Y-105.17
X99.08Y-105.82
X99.1Y-41.8
X99.16Y-102.57
X99.16Y-103.22
X99.6Y-40.8
X99.6Y-42.8
X100.1Y-108.999
X100.15Y-155.21
X100.6Y-107.6
X100.7Y-97.1
X100.7Y-99.7
X101.55Y-62.8
X102.45Y-154.8
X103.1Y-28.8
X103.1Y-29.8
X103.1Y-30.8
X103.1Y-31.8
X103.1Y-32.8
X103.1Y-37.8
X103.1Y-38.8
X103.1Y-39.8
X103.1Y-40.8
X103.1Y-41.8
X103.3Y-96.3
X103.65Y-138.61
X104.05Y-142.31
X104.1Y-29.3
X104.1Y-30.3
X104.1Y-31.3
X104.1Y-32.3
X104.1Y-38.3
X104.1Y-39.3
X104.1Y-40.3
X104.1Y-41.3
X104.5Y-86.0
X104.95Y-123.51
X105.45Y-143.61
X105.75Y-147.51
X105.9Y-31.0
X106.05Y-155.21
X106.105Y-52.8
X106.15Y-46.75
X106.95Y-118.01
X106.95Y-123.11
X107.06Y-52.8
X107.1Y-46.75
X107.15Y-116.81
X107.7Y-38.3
X107.7Y-39.3
X107.7Y-40.3
X107.7Y-41.2
X107.85Y-115.61
X107.98Y-52.09
X108.85Y-46.7
X109.8Y-46.7
X111.85Y-138.71
X111.9Y-39.0
X111.9Y-39.8
X112.45Y-147.41
X112.45Y-155.21
X112.5Y-32.7
X112.6Y-33.3
X113.1Y-48.79
X113.1Y-49.44
X113.1Y-50.71
X113.11Y-50.07
X113.2Y-32.9
X113.2Y-33.5
X113.2Y-42.6
X116.1Y-66.3
X116.2Y-65.2
T4
X35.425Y-126.477
X35.425Y-134.377
X35.425Y-142.277
X35.425Y-150.177
X35.425Y-158.077
X36.965Y-117.987
X42.025Y-126.477
X42.025Y-134.377
X42.025Y-142.277
X42.025Y-150.177
X42.025Y-158.077
X46.64Y-117.987
X48.625Y-126.477
X48.625Y-134.377
X48.625Y-142.277
X48.625Y-150.177
X48.625Y-158.077
X55.225Y-126.477
X55.225Y-134.377
X55.225Y-142.277
X55.225Y-150.177
X55.225Y-158.077
X56.315Y-117.987
X61.825Y-126.477
X61.825Y-134.377
X61.825Y-142.277
X61.825Y-150.177
X65.125Y-158.077
X65.99Y-117.987
X68.425Y-126.477
X68.425Y-134.377
X68.425Y-142.277
X68.425Y-150.177
X75.025Y-126.477
X75.025Y-134.377
X75.025Y-142.277
X75.025Y-150.177
X75.025Y-158.077
X81.625Y-126.477
X81.625Y-134.377
X81.625Y-142.277
X81.625Y-150.177
X84.065Y-117.987
X84.925Y-158.077
X88.225Y-126.477
X88.225Y-134.377
X88.225Y-142.277
X88.225Y-150.177
X93.74Y-117.987
X94.825Y-126.477
X94.825Y-134.377
X94.825Y-142.277
X94.825Y-150.177
X94.825Y-158.077
X101.425Y-126.477
X101.425Y-134.377
X101.425Y-142.277
X101.425Y-150.177
X101.425Y-158.077
X103.415Y-117.987
X108.025Y-126.477
X108.025Y-134.377
X108.025Y-142.277
X108.025Y-150.177
X108.025Y-158.077
X113.09Y-117.987
X114.625Y-126.477
X114.625Y-134.377
X114.625Y-142.277
X114.625Y-150.177
X114.625Y-158.077
T5
X33.0Y-42.0
X33.0Y-108.0
X33.0Y-177.0
X117.0Y-30.0
X117.0Y-108.0
X117.0Y-177.0
T4
G00X38.1Y-91.9
M15
G01X39.8Y-91.9
M16
G05
G00X38.1Y-104.7
M15
G01X39.8Y-104.7
M16
G05
G00X111.9Y-91.9
M15
G01X110.2Y-91.9
M16
G05
G00X111.9Y-104.7
M15
G01X110.2Y-104.7
M16
G05
G00X113.33Y-45.44
M15
G01X112.23Y-45.44
M16
G05
G00X113.33Y-54.08
M15
G01X112.23Y-54.08
M16
G05
G00X117.26Y-45.44
M15
G01X116.66Y-45.44
M16
G05
G00X117.26Y-54.08
M15
G01X116.66Y-54.08
M16
G05
M30
